<svg xmlns="http://www.w3.org/2000/svg" xmlns:xlink="http://www.w3.org/1999/xlink" width="50" zoomAndPan="magnify" viewBox="0 0 37.5 37.499999" height="50" preserveAspectRatio="xMidYMid meet" version="1.0"><defs><clipPath id="ad547217ee"><path d="M 0 0 L 37.007812 0 L 37.007812 37.007812 L 0 37.007812 Z M 0 0 " clip-rule="nonzero"/></clipPath></defs><g clip-path="url(#ad547217ee)"><path fill="#bf8b2e" d="M 0 0 L 37.5 0 L 37.5 37.5 L 0 37.5 Z M 0 0 " fill-opacity="1" fill-rule="nonzero"/></g><path fill="#ffffff" d="M 3.753906 4.917969 L 3.777344 10.722656 L 5.035156 10.722656 L 5.035156 3.144531 L 4.03125 3.144531 L 2.84375 4.519531 L 2.84375 5.851562 L 2.867188 5.851562 Z M 5.804688 4.707031 L 5.804688 5.617188 L 6.96875 5.617188 L 6.96875 4.660156 C 6.96875 4.195312 7.203125 4.078125 7.457031 4.078125 C 7.714844 4.078125 7.925781 4.171875 7.925781 4.636719 L 7.925781 5.265625 C 7.925781 5.898438 7.878906 6.128906 7.457031 6.574219 L 6.734375 7.339844 C 6.035156 8.085938 5.78125 8.578125 5.78125 9.324219 L 5.78125 10.722656 L 9.089844 10.722656 L 9.089844 9.671875 L 6.992188 9.671875 L 6.992188 9.324219 C 6.992188 8.738281 7.203125 8.507812 7.527344 8.15625 L 8.34375 7.292969 C 8.996094 6.597656 9.136719 6.152344 9.136719 5.382812 L 9.136719 4.636719 C 9.136719 3.566406 8.625 3.054688 7.480469 3.054688 C 6.363281 3.054688 5.804688 3.660156 5.804688 4.707031 M 29.203125 20.089844 C 27.664062 18.878906 25.847656 18.761719 25.125 18.761719 C 24.75 18.761719 24.402344 18.785156 24.144531 18.855469 L 24.050781 18.878906 C 23.074219 19.109375 21.464844 19.484375 19.578125 21.839844 L 19.53125 21.90625 C 19.507812 21.953125 19.484375 22 19.484375 22.046875 C 19.484375 22.09375 19.484375 22.140625 19.507812 22.164062 L 19.554688 22.234375 C 19.855469 22.746094 20.113281 23.214844 20.324219 23.585938 C 20.394531 23.726562 20.601562 23.773438 20.71875 23.632812 C 20.742188 23.609375 20.742188 23.585938 20.765625 23.585938 C 22.398438 21.324219 23.679688 21.023438 24.519531 20.835938 L 24.613281 20.8125 C 24.726562 20.789062 24.914062 20.765625 25.125 20.765625 C 25.519531 20.765625 26.871094 20.835938 27.945312 21.675781 C 28.898438 22.421875 29.367188 23.609375 29.367188 25.21875 C 29.367188 27.921875 28.0625 28.96875 26.964844 29.367188 C 26.546875 29.527344 26.101562 29.597656 25.636719 29.597656 C 24.519531 29.597656 23.632812 29.15625 23.632812 29.132812 L 23.5625 29.085938 C 22.628906 28.667969 21.207031 27.828125 19.878906 25.148438 C 17.152344 19.671875 14.871094 19.15625 13.355469 18.808594 L 13.285156 18.785156 C 13.167969 18.761719 12.84375 18.691406 12.304688 18.691406 C 11.421875 18.691406 9.742188 18.855469 8.296875 20.019531 C 7.316406 20.8125 6.128906 22.351562 6.128906 25.148438 C 6.128906 26.871094 6.480469 27.992188 7.386719 29.179688 C 7.550781 29.414062 9.136719 31.441406 12.164062 31.441406 C 12.609375 31.441406 13.074219 31.394531 13.542969 31.300781 C 14.101562 31.183594 14.9375 30.925781 15.894531 30.226562 L 16.6875 30.949219 C 16.78125 31.019531 16.921875 31.019531 17.015625 30.925781 C 17.058594 30.882812 17.082031 30.835938 17.058594 30.789062 L 17.667969 26.988281 L 17.667969 26.941406 C 17.667969 26.871094 17.644531 26.824219 17.597656 26.777344 C 17.550781 26.734375 17.503906 26.710938 17.433594 26.710938 L 13.726562 27.734375 L 13.65625 27.734375 C 13.609375 27.734375 13.5625 27.757812 13.542969 27.804688 C 13.496094 27.851562 13.472656 27.921875 13.472656 27.96875 C 13.472656 28.039062 13.496094 28.085938 13.542969 28.128906 L 14.308594 28.828125 C 13.914062 29.085938 13.496094 29.25 13.121094 29.320312 C 12.796875 29.390625 12.46875 29.414062 12.144531 29.414062 C 10.046875 29.414062 9.019531 28.039062 8.972656 27.96875 L 8.949219 27.945312 C 8.320312 27.105469 8.085938 26.382812 8.085938 25.125 C 8.085938 23.515625 8.554688 22.304688 9.484375 21.558594 C 10.535156 20.71875 11.863281 20.671875 12.234375 20.671875 C 12.445312 20.671875 12.632812 20.695312 12.75 20.71875 L 12.84375 20.742188 C 14.054688 21.023438 15.707031 21.394531 18.015625 26.011719 C 19.226562 28.457031 20.742188 30.042969 22.652344 30.882812 C 22.886719 30.996094 24.050781 31.558594 25.589844 31.558594 C 26.289062 31.558594 26.988281 31.441406 27.640625 31.183594 C 28.761719 30.765625 31.347656 29.34375 31.347656 25.125 C 31.417969 22.421875 30.207031 20.882812 29.203125 20.089844 Z M 29.203125 20.089844 " fill-opacity="1" fill-rule="nonzero"/><path fill="#ffffff" d="M 12.492188 4.800781 L 12.492188 6.199219 L 11.980469 6.199219 L 11.980469 3.144531 L 12.726562 3.144531 C 13.238281 3.144531 13.425781 3.402344 13.425781 3.820312 L 13.425781 4.21875 C 13.425781 4.542969 13.308594 4.730469 13.003906 4.800781 L 13.496094 6.199219 L 12.957031 6.199219 Z M 12.492188 3.566406 L 12.492188 4.519531 L 12.65625 4.519531 C 12.84375 4.519531 12.910156 4.429688 12.910156 4.265625 L 12.910156 3.820312 C 12.910156 3.660156 12.84375 3.566406 12.65625 3.566406 Z M 13.773438 3.144531 L 15.007812 3.144531 L 15.007812 3.566406 L 14.285156 3.566406 L 14.285156 4.453125 L 14.800781 4.453125 L 14.800781 4.871094 L 14.285156 4.871094 L 14.285156 5.804688 L 15.007812 5.804688 L 15.007812 6.222656 L 13.773438 6.222656 Z M 15.289062 5.546875 L 15.289062 5.128906 L 15.777344 5.128906 L 15.777344 5.546875 C 15.777344 5.710938 15.847656 5.828125 16.035156 5.828125 C 16.199219 5.828125 16.269531 5.710938 16.269531 5.546875 L 16.269531 5.429688 C 16.269531 5.242188 16.199219 5.152344 16.035156 4.988281 L 15.730469 4.683594 C 15.429688 4.40625 15.3125 4.21875 15.3125 3.867188 L 15.3125 3.777344 C 15.3125 3.402344 15.546875 3.101562 16.035156 3.101562 C 16.546875 3.101562 16.757812 3.355469 16.757812 3.800781 L 16.757812 4.054688 L 16.292969 4.054688 L 16.292969 3.800781 C 16.292969 3.613281 16.222656 3.542969 16.058594 3.542969 C 15.917969 3.542969 15.824219 3.613281 15.824219 3.800781 L 15.824219 3.867188 C 15.824219 4.03125 15.917969 4.148438 16.058594 4.289062 L 16.382812 4.613281 C 16.664062 4.894531 16.804688 5.082031 16.804688 5.40625 L 16.804688 5.546875 C 16.804688 5.964844 16.570312 6.269531 16.058594 6.269531 C 15.5 6.246094 15.289062 5.941406 15.289062 5.546875 Z M 17.082031 3.144531 L 17.851562 3.144531 C 18.367188 3.144531 18.550781 3.402344 18.550781 3.820312 L 18.550781 4.476562 C 18.550781 4.894531 18.367188 5.175781 17.851562 5.175781 L 17.597656 5.175781 L 17.597656 6.222656 L 17.082031 6.222656 Z M 17.597656 3.566406 L 17.597656 4.777344 L 17.78125 4.777344 C 17.96875 4.777344 18.039062 4.683594 18.039062 4.519531 L 18.039062 3.820312 C 18.039062 3.660156 17.96875 3.566406 17.78125 3.566406 Z M 18.878906 5.40625 L 18.878906 3.914062 C 18.878906 3.425781 19.109375 3.101562 19.648438 3.101562 C 20.183594 3.101562 20.441406 3.449219 20.441406 3.914062 L 20.441406 5.40625 C 20.441406 5.875 20.207031 6.222656 19.648438 6.222656 C 19.109375 6.246094 18.878906 5.875 18.878906 5.40625 Z M 19.925781 5.5 L 19.925781 3.84375 C 19.925781 3.660156 19.855469 3.519531 19.671875 3.519531 C 19.484375 3.519531 19.414062 3.660156 19.414062 3.84375 L 19.414062 5.5 C 19.414062 5.6875 19.484375 5.828125 19.671875 5.828125 C 19.832031 5.804688 19.925781 5.6875 19.925781 5.5 Z M 21.207031 4.265625 L 21.207031 6.199219 L 20.765625 6.199219 L 20.765625 3.144531 L 21.277344 3.144531 L 21.839844 4.894531 L 21.839844 3.144531 L 22.257812 3.144531 L 22.257812 6.199219 L 21.816406 6.199219 Z M 22.605469 5.546875 L 22.605469 5.128906 L 23.097656 5.128906 L 23.097656 5.546875 C 23.097656 5.710938 23.167969 5.828125 23.351562 5.828125 C 23.515625 5.828125 23.585938 5.710938 23.585938 5.546875 L 23.585938 5.429688 C 23.585938 5.242188 23.515625 5.152344 23.351562 4.988281 L 23.050781 4.683594 C 22.746094 4.40625 22.628906 4.21875 22.628906 3.867188 L 22.628906 3.777344 C 22.628906 3.402344 22.863281 3.101562 23.351562 3.101562 C 23.867188 3.101562 24.074219 3.355469 24.074219 3.800781 L 24.074219 4.054688 L 23.609375 4.054688 L 23.609375 3.800781 C 23.609375 3.613281 23.539062 3.542969 23.375 3.542969 C 23.238281 3.542969 23.144531 3.613281 23.144531 3.800781 L 23.144531 3.867188 C 23.144531 4.03125 23.238281 4.148438 23.375 4.289062 L 23.703125 4.613281 C 23.980469 4.894531 24.121094 5.082031 24.121094 5.40625 L 24.121094 5.546875 C 24.121094 5.964844 23.890625 6.269531 23.375 6.269531 C 22.792969 6.246094 22.605469 5.941406 22.605469 5.546875 Z M 24.378906 3.144531 L 24.890625 3.144531 L 24.890625 6.199219 L 24.378906 6.199219 Z M 25.242188 3.144531 L 25.988281 3.144531 C 26.5 3.144531 26.664062 3.378906 26.664062 3.820312 L 26.664062 4.125 C 26.664062 4.382812 26.570312 4.542969 26.359375 4.613281 C 26.617188 4.683594 26.734375 4.847656 26.734375 5.128906 L 26.734375 5.523438 C 26.734375 5.964844 26.546875 6.199219 26.035156 6.199219 L 25.242188 6.199219 Z M 25.777344 4.429688 L 25.964844 4.429688 C 26.125 4.429688 26.195312 4.335938 26.195312 4.171875 L 26.195312 3.800781 C 26.195312 3.636719 26.125 3.542969 25.941406 3.542969 L 25.753906 3.542969 Z M 25.777344 4.824219 L 25.777344 5.78125 L 26.011719 5.78125 C 26.171875 5.78125 26.265625 5.6875 26.265625 5.523438 L 26.265625 5.058594 C 26.265625 4.894531 26.195312 4.800781 26.011719 4.800781 L 25.777344 4.800781 Z M 27.058594 3.144531 L 27.570312 3.144531 L 27.570312 5.78125 L 28.175781 5.78125 L 28.175781 6.199219 L 27.058594 6.199219 Z M 28.480469 3.144531 L 29.714844 3.144531 L 29.714844 3.566406 L 28.992188 3.566406 L 28.992188 4.453125 L 29.507812 4.453125 L 29.507812 4.871094 L 28.992188 4.871094 L 28.992188 5.804688 L 29.714844 5.804688 L 29.714844 6.222656 L 28.480469 6.222656 Z M 28.480469 3.144531 " fill-opacity="1" fill-rule="nonzero"/><path fill="#ffffff" d="M 11.980469 9.90625 L 11.980469 8.414062 C 11.980469 7.925781 12.210938 7.597656 12.75 7.597656 C 13.308594 7.597656 13.472656 7.925781 13.472656 8.367188 L 13.472656 8.738281 L 13.003906 8.738281 L 13.003906 8.34375 C 13.003906 8.15625 12.933594 8.039062 12.75 8.039062 C 12.5625 8.039062 12.492188 8.179688 12.492188 8.367188 L 12.492188 10.023438 C 12.492188 10.207031 12.5625 10.347656 12.75 10.347656 C 12.933594 10.347656 13.003906 10.230469 13.003906 10.046875 L 13.003906 9.484375 L 13.472656 9.484375 L 13.472656 10.023438 C 13.472656 10.464844 13.285156 10.789062 12.75 10.789062 C 12.210938 10.746094 11.980469 10.394531 11.980469 9.90625 Z M 13.796875 9.90625 L 13.796875 8.414062 C 13.796875 7.925781 14.03125 7.597656 14.566406 7.597656 C 15.101562 7.597656 15.359375 7.949219 15.359375 8.414062 L 15.359375 9.90625 C 15.359375 10.371094 15.125 10.722656 14.566406 10.722656 C 14.03125 10.746094 13.796875 10.394531 13.796875 9.90625 Z M 14.847656 10 L 14.847656 8.34375 C 14.847656 8.15625 14.777344 8.015625 14.589844 8.015625 C 14.402344 8.015625 14.332031 8.15625 14.332031 8.34375 L 14.332031 10 C 14.332031 10.183594 14.402344 10.324219 14.589844 10.324219 C 14.777344 10.300781 14.847656 10.183594 14.847656 10 Z M 16.128906 8.785156 L 16.128906 10.722656 L 15.683594 10.722656 L 15.683594 7.667969 L 16.199219 7.667969 L 16.757812 9.414062 L 16.757812 7.667969 L 17.175781 7.667969 L 17.175781 10.722656 L 16.734375 10.722656 Z M 17.503906 10.046875 L 17.503906 9.625 L 17.992188 9.625 L 17.992188 10.046875 C 17.992188 10.207031 18.0625 10.324219 18.25 10.324219 C 18.410156 10.324219 18.480469 10.207031 18.480469 10.046875 L 18.480469 9.929688 C 18.480469 9.742188 18.410156 9.648438 18.25 9.484375 L 17.945312 9.183594 C 17.644531 8.902344 17.527344 8.714844 17.527344 8.367188 L 17.527344 8.273438 C 17.527344 7.902344 17.757812 7.597656 18.25 7.597656 C 18.761719 7.597656 18.972656 7.855469 18.972656 8.296875 L 18.972656 8.554688 L 18.503906 8.554688 L 18.503906 8.296875 C 18.503906 8.109375 18.433594 8.039062 18.273438 8.039062 C 18.132812 8.039062 18.039062 8.109375 18.039062 8.296875 L 18.039062 8.367188 C 18.039062 8.53125 18.132812 8.648438 18.273438 8.785156 L 18.597656 9.113281 C 18.878906 9.390625 19.019531 9.578125 19.019531 9.90625 L 19.019531 10.046875 C 19.019531 10.464844 18.785156 10.765625 18.273438 10.765625 C 17.710938 10.746094 17.503906 10.441406 17.503906 10.046875 Z M 20.789062 7.644531 L 20.789062 9.953125 C 20.789062 10.417969 20.578125 10.746094 20.066406 10.746094 C 19.53125 10.746094 19.296875 10.441406 19.296875 9.953125 L 19.296875 7.644531 L 19.808594 7.644531 L 19.808594 10.023438 C 19.808594 10.207031 19.878906 10.324219 20.066406 10.324219 C 20.253906 10.324219 20.324219 10.207031 20.324219 10.023438 L 20.324219 7.644531 Z M 22.5625 8.714844 L 22.1875 10.699219 L 21.953125 10.699219 L 21.582031 8.714844 L 21.582031 10.699219 L 21.164062 10.699219 L 21.164062 7.644531 L 21.769531 7.644531 L 22.09375 9.371094 L 22.398438 7.644531 L 23.050781 7.644531 L 23.050781 10.699219 L 22.582031 10.699219 L 22.582031 8.714844 Z M 23.375 7.644531 L 24.144531 7.644531 C 24.65625 7.644531 24.84375 7.902344 24.84375 8.320312 L 24.84375 8.972656 C 24.84375 9.390625 24.65625 9.671875 24.144531 9.671875 L 23.890625 9.671875 L 23.890625 10.722656 L 23.375 10.722656 Z M 23.890625 8.0625 L 23.890625 9.277344 L 24.074219 9.277344 C 24.261719 9.277344 24.332031 9.183594 24.332031 9.019531 L 24.332031 8.320312 C 24.332031 8.15625 24.261719 8.0625 24.074219 8.0625 Z M 25.007812 7.644531 L 26.382812 7.644531 L 26.382812 8.0625 L 25.964844 8.0625 L 25.964844 10.699219 L 25.449219 10.699219 L 25.449219 8.0625 L 25.03125 8.0625 Z M 26.617188 7.644531 L 27.128906 7.644531 L 27.128906 10.699219 L 26.617188 10.699219 Z M 27.429688 9.90625 L 27.429688 8.414062 C 27.429688 7.925781 27.664062 7.597656 28.199219 7.597656 C 28.738281 7.597656 28.992188 7.949219 28.992188 8.414062 L 28.992188 9.90625 C 28.992188 10.371094 28.761719 10.722656 28.199219 10.722656 C 27.664062 10.746094 27.429688 10.394531 27.429688 9.90625 Z M 28.480469 10 L 28.480469 8.34375 C 28.480469 8.15625 28.410156 8.015625 28.222656 8.015625 C 28.039062 8.015625 27.96875 8.15625 27.96875 8.34375 L 27.96875 10 C 27.96875 10.183594 28.039062 10.324219 28.222656 10.324219 C 28.386719 10.300781 28.480469 10.183594 28.480469 10 Z M 29.738281 8.785156 L 29.738281 10.722656 L 29.296875 10.722656 L 29.296875 7.667969 L 29.808594 7.667969 L 30.367188 9.414062 L 30.367188 7.667969 L 30.789062 7.667969 L 30.789062 10.722656 L 30.34375 10.722656 Z M 29.738281 8.785156 " fill-opacity="1" fill-rule="nonzero"/><path fill="#ffffff" d="M 11.910156 15.195312 L 12.492188 12.144531 L 13.074219 12.144531 L 13.65625 15.195312 L 13.121094 15.195312 L 13.027344 14.636719 L 12.492188 14.636719 L 12.398438 15.195312 Z M 12.539062 14.238281 L 12.957031 14.238281 L 12.75 13.003906 Z M 14.308594 13.285156 L 14.308594 15.21875 L 13.867188 15.21875 L 13.867188 12.164062 L 14.378906 12.164062 L 14.9375 13.914062 L 14.9375 12.164062 L 15.359375 12.164062 L 15.359375 15.21875 L 14.917969 15.21875 Z M 17.222656 12.957031 L 17.222656 14.378906 C 17.222656 14.847656 17.035156 15.195312 16.476562 15.195312 L 15.683594 15.195312 L 15.683594 12.144531 L 16.476562 12.144531 C 17.015625 12.144531 17.222656 12.492188 17.222656 12.957031 Z M 16.40625 14.777344 C 16.617188 14.777344 16.710938 14.660156 16.710938 14.472656 L 16.710938 12.863281 C 16.710938 12.679688 16.640625 12.5625 16.40625 12.5625 L 16.199219 12.5625 L 16.199219 14.777344 Z M 18.015625 12.144531 L 18.785156 12.144531 C 19.296875 12.144531 19.484375 12.398438 19.484375 12.820312 L 19.484375 13.472656 C 19.484375 13.890625 19.296875 14.171875 18.785156 14.171875 L 18.527344 14.171875 L 18.527344 15.21875 L 18.015625 15.21875 Z M 18.527344 12.5625 L 18.527344 13.773438 L 18.714844 13.773438 C 18.902344 13.773438 18.972656 13.679688 18.972656 13.519531 L 18.972656 12.820312 C 18.972656 12.65625 18.902344 12.5625 18.714844 12.5625 Z M 20.277344 13.796875 L 20.277344 15.195312 L 19.765625 15.195312 L 19.765625 12.144531 L 20.507812 12.144531 C 21.023438 12.144531 21.207031 12.398438 21.207031 12.820312 L 21.207031 13.214844 C 21.207031 13.542969 21.09375 13.726562 20.789062 13.796875 L 21.277344 15.195312 L 20.742188 15.195312 Z M 20.277344 12.5625 L 20.277344 13.519531 L 20.441406 13.519531 C 20.625 13.519531 20.695312 13.425781 20.695312 13.261719 L 20.695312 12.820312 C 20.695312 12.65625 20.625 12.5625 20.441406 12.5625 Z M 21.511719 14.402344 L 21.511719 12.910156 C 21.511719 12.421875 21.746094 12.097656 22.28125 12.097656 C 22.816406 12.097656 23.074219 12.445312 23.074219 12.910156 L 23.074219 14.402344 C 23.074219 14.871094 22.839844 15.21875 22.28125 15.21875 C 21.746094 15.242188 21.511719 14.894531 21.511719 14.402344 Z M 22.5625 14.496094 L 22.5625 12.84375 C 22.5625 12.65625 22.492188 12.515625 22.304688 12.515625 C 22.117188 12.515625 22.046875 12.65625 22.046875 12.84375 L 22.046875 14.496094 C 22.046875 14.683594 22.117188 14.824219 22.304688 14.824219 C 22.492188 14.800781 22.5625 14.683594 22.5625 14.496094 Z M 24.9375 12.957031 L 24.9375 14.378906 C 24.9375 14.847656 24.75 15.195312 24.191406 15.195312 L 23.398438 15.195312 L 23.398438 12.144531 L 24.191406 12.144531 C 24.726562 12.144531 24.9375 12.492188 24.9375 12.957031 Z M 24.121094 14.777344 C 24.332031 14.777344 24.425781 14.660156 24.425781 14.472656 L 24.425781 12.863281 C 24.425781 12.679688 24.355469 12.5625 24.121094 12.5625 L 23.914062 12.5625 L 23.914062 14.777344 Z M 26.734375 12.144531 L 26.734375 14.449219 C 26.734375 14.917969 26.523438 15.242188 26.011719 15.242188 C 25.472656 15.242188 25.242188 14.9375 25.242188 14.449219 L 25.242188 12.144531 L 25.753906 12.144531 L 25.753906 14.519531 C 25.753906 14.707031 25.824219 14.824219 26.011719 14.824219 C 26.195312 14.824219 26.265625 14.707031 26.265625 14.519531 L 26.265625 12.144531 Z M 27.035156 14.402344 L 27.035156 12.910156 C 27.035156 12.421875 27.269531 12.097656 27.804688 12.097656 C 28.363281 12.097656 28.527344 12.421875 28.527344 12.863281 L 28.527344 13.238281 L 28.0625 13.238281 L 28.0625 12.84375 C 28.0625 12.65625 27.992188 12.539062 27.804688 12.539062 C 27.617188 12.539062 27.546875 12.679688 27.546875 12.863281 L 27.546875 14.519531 C 27.546875 14.707031 27.617188 14.847656 27.804688 14.847656 C 27.992188 14.847656 28.0625 14.730469 28.0625 14.542969 L 28.0625 13.984375 L 28.527344 13.984375 L 28.527344 14.519531 C 28.527344 14.960938 28.339844 15.289062 27.804688 15.289062 C 27.269531 15.242188 27.035156 14.894531 27.035156 14.402344 Z M 28.785156 12.144531 L 30.160156 12.144531 L 30.160156 12.5625 L 29.738281 12.5625 L 29.738281 15.195312 L 29.226562 15.195312 L 29.226562 12.5625 L 28.808594 12.5625 Z M 30.390625 12.144531 L 30.902344 12.144531 L 30.902344 15.195312 L 30.390625 15.195312 Z M 31.207031 14.402344 L 31.207031 12.910156 C 31.207031 12.421875 31.441406 12.097656 31.976562 12.097656 C 32.511719 12.097656 32.769531 12.445312 32.769531 12.910156 L 32.769531 14.402344 C 32.769531 14.871094 32.535156 15.21875 31.976562 15.21875 C 31.441406 15.242188 31.207031 14.894531 31.207031 14.402344 Z M 32.257812 14.496094 L 32.257812 12.84375 C 32.257812 12.65625 32.1875 12.515625 32 12.515625 C 31.8125 12.515625 31.742188 12.65625 31.742188 12.84375 L 31.742188 14.496094 C 31.742188 14.683594 31.8125 14.824219 32 14.824219 C 32.164062 14.800781 32.257812 14.683594 32.257812 14.496094 Z M 33.492188 13.285156 L 33.492188 15.21875 L 33.046875 15.21875 L 33.046875 12.164062 L 33.5625 12.164062 L 34.121094 13.914062 L 34.121094 12.164062 L 34.539062 12.164062 L 34.539062 15.21875 L 34.097656 15.21875 Z M 33.492188 13.285156 " fill-opacity="1" fill-rule="nonzero"/></svg>