<svg xmlns="http://www.w3.org/2000/svg" xmlns:xlink="http://www.w3.org/1999/xlink" width="250" zoomAndPan="magnify" viewBox="0 0 187.5 187.499992" height="250" preserveAspectRatio="xMidYMid meet" version="1.0"><defs><clipPath id="575caed342"><path d="M 0 0 L 187 0 L 187 187 L 0 187 Z M 0 0 " clip-rule="nonzero"/></clipPath></defs><g clip-path="url(#575caed342)"><path fill="#ffffff" d="M 0 0 L 187.5 0 L 187.5 195 L 0 195 Z M 0 0 " fill-opacity="1" fill-rule="nonzero"/><path fill="#ffffff" d="M 0 0 L 187.5 0 L 187.5 187.5 L 0 187.5 Z M 0 0 " fill-opacity="1" fill-rule="nonzero"/><path fill="#ffffff" d="M 0 0 L 187.5 0 L 187.5 187.5 L 0 187.5 Z M 0 0 " fill-opacity="1" fill-rule="nonzero"/><path fill="#bf8b2e" d="M 0 0 L 187.5 0 L 187.5 187.5 L 0 187.5 Z M 0 0 " fill-opacity="1" fill-rule="nonzero"/></g><path fill="#ffffff" d="M 18.761719 24.589844 L 18.878906 53.605469 L 25.171875 53.605469 L 25.171875 15.730469 L 20.160156 15.730469 L 14.21875 22.605469 L 14.21875 29.25 L 14.332031 29.25 Z M 29.015625 23.539062 L 29.015625 28.085938 L 34.84375 28.085938 L 34.84375 23.304688 C 34.84375 20.976562 36.007812 20.394531 37.289062 20.394531 C 38.570312 20.394531 39.621094 20.859375 39.621094 23.191406 L 39.621094 26.335938 C 39.621094 29.484375 39.386719 30.648438 37.289062 32.863281 L 33.679688 36.707031 C 30.183594 40.4375 28.898438 42.882812 28.898438 46.613281 L 28.898438 53.605469 L 45.449219 53.605469 L 45.449219 48.359375 L 34.960938 48.359375 L 34.960938 46.613281 C 34.960938 43.699219 36.007812 42.535156 37.640625 40.785156 L 41.71875 36.472656 C 44.980469 32.980469 45.679688 30.765625 45.679688 26.917969 L 45.679688 23.191406 C 45.679688 17.828125 43.117188 15.265625 37.40625 15.265625 C 31.8125 15.265625 29.015625 18.296875 29.015625 23.539062 M 146.015625 100.449219 C 138.324219 94.390625 129.234375 93.808594 125.621094 93.808594 C 123.757812 93.808594 122.007812 93.925781 120.726562 94.273438 L 120.261719 94.390625 C 115.367188 95.554688 107.324219 97.421875 97.886719 109.191406 L 97.652344 109.539062 C 97.539062 109.773438 97.421875 110.007812 97.421875 110.238281 C 97.421875 110.472656 97.421875 110.707031 97.539062 110.820312 L 97.769531 111.171875 C 99.285156 113.734375 100.566406 116.066406 101.617188 117.929688 C 101.964844 118.628906 103.015625 118.863281 103.597656 118.164062 C 103.714844 118.046875 103.714844 117.929688 103.828125 117.929688 C 111.988281 106.625 118.398438 105.113281 122.589844 104.179688 L 123.058594 104.0625 C 123.640625 103.945312 124.574219 103.828125 125.621094 103.828125 C 127.601562 103.828125 134.363281 104.179688 139.722656 108.375 C 144.5 112.105469 146.832031 118.046875 146.832031 126.085938 C 146.832031 139.605469 140.304688 144.847656 134.828125 146.832031 C 132.730469 147.644531 130.515625 147.996094 128.183594 147.996094 C 122.589844 147.996094 118.164062 145.78125 118.164062 145.664062 L 117.8125 145.433594 C 113.152344 143.335938 106.042969 139.140625 99.402344 125.738281 C 85.765625 98.351562 74.347656 95.789062 66.773438 94.042969 L 66.421875 93.925781 C 65.839844 93.808594 64.210938 93.457031 61.527344 93.457031 C 57.101562 93.457031 48.710938 94.273438 41.484375 100.101562 C 36.589844 104.0625 30.648438 111.753906 30.648438 125.738281 C 30.648438 134.363281 32.394531 139.953125 36.941406 145.898438 C 37.757812 147.0625 45.679688 157.203125 60.828125 157.203125 C 63.042969 157.203125 65.375 156.96875 67.707031 156.503906 C 70.5 155.917969 74.695312 154.636719 79.476562 151.140625 L 83.4375 154.753906 C 83.902344 155.105469 84.601562 155.105469 85.070312 154.636719 C 85.300781 154.40625 85.417969 154.171875 85.300781 153.9375 L 88.332031 134.945312 L 88.332031 134.710938 C 88.332031 134.363281 88.214844 134.128906 87.980469 133.894531 C 87.75 133.664062 87.515625 133.546875 87.164062 133.546875 L 68.636719 138.671875 L 68.289062 138.671875 C 68.054688 138.671875 67.820312 138.789062 67.707031 139.023438 C 67.472656 139.253906 67.355469 139.605469 67.355469 139.839844 C 67.355469 140.1875 67.472656 140.421875 67.707031 140.652344 L 71.550781 144.148438 C 69.570312 145.433594 67.472656 146.246094 65.609375 146.597656 C 63.976562 146.945312 62.34375 147.0625 60.714844 147.0625 C 50.226562 147.0625 45.097656 140.1875 44.863281 139.839844 L 44.75 139.722656 C 41.601562 135.527344 40.4375 131.914062 40.4375 125.621094 C 40.4375 117.582031 42.765625 111.519531 47.429688 107.792969 C 52.671875 103.597656 59.316406 103.363281 61.179688 103.363281 C 62.226562 103.363281 63.160156 103.480469 63.742188 103.597656 L 64.210938 103.714844 C 70.269531 105.113281 78.542969 106.976562 90.078125 130.050781 C 96.140625 142.285156 103.714844 150.210938 113.269531 154.40625 C 114.433594 154.988281 120.261719 157.785156 127.953125 157.785156 C 131.449219 157.785156 134.945312 157.203125 138.207031 155.917969 C 143.800781 153.820312 156.734375 146.714844 156.734375 125.621094 C 157.085938 112.105469 151.027344 104.414062 146.015625 100.449219 Z M 146.015625 100.449219 " fill-opacity="1" fill-rule="nonzero"/><path fill="#ffffff" d="M 62.460938 24.003906 L 62.460938 30.996094 L 59.898438 30.996094 L 59.898438 15.730469 L 63.625 15.730469 C 66.191406 15.730469 67.121094 17.015625 67.121094 19.109375 L 67.121094 21.09375 C 67.121094 22.722656 66.539062 23.65625 65.023438 24.003906 L 67.472656 30.996094 L 64.792969 30.996094 Z M 62.460938 17.828125 L 62.460938 22.605469 L 63.277344 22.605469 C 64.210938 22.605469 64.558594 22.140625 64.558594 21.324219 L 64.558594 19.109375 C 64.558594 18.296875 64.210938 17.828125 63.277344 17.828125 Z M 68.871094 15.730469 L 75.046875 15.730469 L 75.046875 17.828125 L 71.433594 17.828125 L 71.433594 22.257812 L 73.996094 22.257812 L 73.996094 24.355469 L 71.433594 24.355469 L 71.433594 29.015625 L 75.046875 29.015625 L 75.046875 31.113281 L 68.871094 31.113281 Z M 76.445312 27.734375 L 76.445312 25.636719 L 78.890625 25.636719 L 78.890625 27.734375 C 78.890625 28.550781 79.242188 29.132812 80.175781 29.132812 C 80.988281 29.132812 81.339844 28.550781 81.339844 27.734375 L 81.339844 27.152344 C 81.339844 26.21875 80.988281 25.753906 80.175781 24.9375 L 78.660156 23.421875 C 77.144531 22.023438 76.5625 21.09375 76.5625 19.34375 L 76.5625 18.878906 C 76.5625 17.015625 77.726562 15.5 80.175781 15.5 C 82.738281 15.5 83.785156 16.78125 83.785156 18.996094 L 83.785156 20.277344 L 81.457031 20.277344 L 81.457031 18.996094 C 81.457031 18.0625 81.105469 17.710938 80.289062 17.710938 C 79.589844 17.710938 79.125 18.0625 79.125 18.996094 L 79.125 19.34375 C 79.125 20.160156 79.589844 20.742188 80.289062 21.441406 L 81.921875 23.074219 C 83.320312 24.472656 84.019531 25.402344 84.019531 27.035156 L 84.019531 27.734375 C 84.019531 29.832031 82.855469 31.347656 80.289062 31.347656 C 77.492188 31.230469 76.445312 29.714844 76.445312 27.734375 Z M 85.417969 15.730469 L 89.261719 15.730469 C 91.828125 15.730469 92.757812 17.015625 92.757812 19.109375 L 92.757812 22.375 C 92.757812 24.472656 91.828125 25.871094 89.261719 25.871094 L 87.980469 25.871094 L 87.980469 31.113281 L 85.417969 31.113281 Z M 87.980469 17.828125 L 87.980469 23.890625 L 88.914062 23.890625 C 89.847656 23.890625 90.195312 23.421875 90.195312 22.605469 L 90.195312 19.109375 C 90.195312 18.296875 89.847656 17.828125 88.914062 17.828125 Z M 94.390625 27.035156 L 94.390625 19.578125 C 94.390625 17.128906 95.554688 15.5 98.238281 15.5 C 100.917969 15.5 102.199219 17.246094 102.199219 19.578125 L 102.199219 27.035156 C 102.199219 29.367188 101.035156 31.113281 98.238281 31.113281 C 95.554688 31.230469 94.390625 29.367188 94.390625 27.035156 Z M 99.636719 27.5 L 99.636719 19.226562 C 99.636719 18.296875 99.285156 17.597656 98.351562 17.597656 C 97.421875 17.597656 97.070312 18.296875 97.070312 19.226562 L 97.070312 27.5 C 97.070312 28.433594 97.421875 29.132812 98.351562 29.132812 C 99.167969 29.015625 99.636719 28.433594 99.636719 27.5 Z M 106.042969 21.324219 L 106.042969 30.996094 L 103.828125 30.996094 L 103.828125 15.730469 L 106.394531 15.730469 L 109.191406 24.472656 L 109.191406 15.730469 L 111.289062 15.730469 L 111.289062 30.996094 L 109.074219 30.996094 Z M 113.035156 27.734375 L 113.035156 25.636719 L 115.484375 25.636719 L 115.484375 27.734375 C 115.484375 28.550781 115.832031 29.132812 116.765625 29.132812 C 117.582031 29.132812 117.929688 28.550781 117.929688 27.734375 L 117.929688 27.152344 C 117.929688 26.21875 117.582031 25.753906 116.765625 24.9375 L 115.25 23.421875 C 113.734375 22.023438 113.152344 21.09375 113.152344 19.34375 L 113.152344 18.878906 C 113.152344 17.015625 114.316406 15.5 116.765625 15.5 C 119.328125 15.5 120.378906 16.78125 120.378906 18.996094 L 120.378906 20.277344 L 118.046875 20.277344 L 118.046875 18.996094 C 118.046875 18.0625 117.699219 17.710938 116.882812 17.710938 C 116.183594 17.710938 115.714844 18.0625 115.714844 18.996094 L 115.714844 19.34375 C 115.714844 20.160156 116.183594 20.742188 116.882812 21.441406 L 118.511719 23.074219 C 119.910156 24.472656 120.609375 25.402344 120.609375 27.035156 L 120.609375 27.734375 C 120.609375 29.832031 119.445312 31.347656 116.882812 31.347656 C 113.96875 31.230469 113.035156 29.714844 113.035156 27.734375 Z M 121.890625 15.730469 L 124.457031 15.730469 L 124.457031 30.996094 L 121.890625 30.996094 Z M 126.203125 15.730469 L 129.933594 15.730469 C 132.496094 15.730469 133.3125 16.898438 133.3125 19.109375 L 133.3125 20.625 C 133.3125 21.90625 132.847656 22.722656 131.796875 23.074219 C 133.078125 23.421875 133.664062 24.238281 133.664062 25.636719 L 133.664062 27.617188 C 133.664062 29.832031 132.730469 30.996094 130.167969 30.996094 L 126.203125 30.996094 Z M 128.882812 22.140625 L 129.816406 22.140625 C 130.632812 22.140625 130.980469 21.675781 130.980469 20.859375 L 130.980469 18.996094 C 130.980469 18.179688 130.632812 17.710938 129.699219 17.710938 L 128.769531 17.710938 Z M 128.882812 24.121094 L 128.882812 28.898438 L 130.050781 28.898438 C 130.867188 28.898438 131.332031 28.433594 131.332031 27.617188 L 131.332031 25.289062 C 131.332031 24.472656 130.980469 24.003906 130.050781 24.003906 L 128.882812 24.003906 Z M 135.292969 15.730469 L 137.855469 15.730469 L 137.855469 28.898438 L 140.886719 28.898438 L 140.886719 30.996094 L 135.292969 30.996094 Z M 142.402344 15.730469 L 148.578125 15.730469 L 148.578125 17.828125 L 144.964844 17.828125 L 144.964844 22.257812 L 147.53125 22.257812 L 147.53125 24.355469 L 144.964844 24.355469 L 144.964844 29.015625 L 148.578125 29.015625 L 148.578125 31.113281 L 142.402344 31.113281 Z M 142.402344 15.730469 " fill-opacity="1" fill-rule="nonzero"/><path fill="#ffffff" d="M 59.898438 49.527344 L 59.898438 42.066406 C 59.898438 39.621094 61.0625 37.988281 63.742188 37.988281 C 66.539062 37.988281 67.355469 39.621094 67.355469 41.835938 L 67.355469 43.699219 L 65.023438 43.699219 L 65.023438 41.71875 C 65.023438 40.785156 64.675781 40.203125 63.742188 40.203125 C 62.8125 40.203125 62.460938 40.902344 62.460938 41.835938 L 62.460938 50.109375 C 62.460938 51.039062 62.8125 51.738281 63.742188 51.738281 C 64.675781 51.738281 65.023438 51.15625 65.023438 50.226562 L 65.023438 47.429688 L 67.355469 47.429688 L 67.355469 50.109375 C 67.355469 52.324219 66.421875 53.953125 63.742188 53.953125 C 61.0625 53.722656 59.898438 51.972656 59.898438 49.527344 Z M 68.988281 49.527344 L 68.988281 42.066406 C 68.988281 39.621094 70.152344 37.988281 72.832031 37.988281 C 75.511719 37.988281 76.792969 39.738281 76.792969 42.066406 L 76.792969 49.527344 C 76.792969 51.855469 75.628906 53.605469 72.832031 53.605469 C 70.152344 53.722656 68.988281 51.972656 68.988281 49.527344 Z M 74.230469 49.992188 L 74.230469 41.71875 C 74.230469 40.785156 73.882812 40.085938 72.949219 40.085938 C 72.015625 40.085938 71.667969 40.785156 71.667969 41.71875 L 71.667969 49.992188 C 71.667969 50.925781 72.015625 51.625 72.949219 51.625 C 73.882812 51.507812 74.230469 50.925781 74.230469 49.992188 Z M 80.640625 43.933594 L 80.640625 53.605469 L 78.425781 53.605469 L 78.425781 38.339844 L 80.988281 38.339844 L 83.785156 47.078125 L 83.785156 38.339844 L 85.882812 38.339844 L 85.882812 53.605469 L 83.671875 53.605469 Z M 87.515625 50.226562 L 87.515625 48.128906 L 89.960938 48.128906 L 89.960938 50.226562 C 89.960938 51.039062 90.3125 51.625 91.246094 51.625 C 92.058594 51.625 92.410156 51.039062 92.410156 50.226562 L 92.410156 49.644531 C 92.410156 48.710938 92.058594 48.246094 91.246094 47.429688 L 89.730469 45.914062 C 88.214844 44.515625 87.632812 43.582031 87.632812 41.835938 L 87.632812 41.367188 C 87.632812 39.503906 88.796875 37.988281 91.246094 37.988281 C 93.808594 37.988281 94.855469 39.269531 94.855469 41.484375 L 94.855469 42.765625 L 92.527344 42.765625 L 92.527344 41.484375 C 92.527344 40.554688 92.175781 40.203125 91.359375 40.203125 C 90.660156 40.203125 90.195312 40.554688 90.195312 41.484375 L 90.195312 41.835938 C 90.195312 42.652344 90.660156 43.234375 91.359375 43.933594 L 92.992188 45.5625 C 94.390625 46.960938 95.089844 47.894531 95.089844 49.527344 L 95.089844 50.226562 C 95.089844 52.324219 93.925781 53.835938 91.359375 53.835938 C 88.5625 53.722656 87.515625 52.207031 87.515625 50.226562 Z M 103.945312 38.222656 L 103.945312 49.757812 C 103.945312 52.089844 102.898438 53.722656 100.335938 53.722656 C 97.652344 53.722656 96.488281 52.207031 96.488281 49.757812 L 96.488281 38.222656 L 99.050781 38.222656 L 99.050781 50.109375 C 99.050781 51.039062 99.402344 51.625 100.335938 51.625 C 101.265625 51.625 101.617188 51.039062 101.617188 50.109375 L 101.617188 38.222656 Z M 112.804688 43.582031 L 110.9375 53.488281 L 109.773438 53.488281 L 107.910156 43.582031 L 107.910156 53.488281 L 105.8125 53.488281 L 105.8125 38.222656 L 108.839844 38.222656 L 110.472656 46.847656 L 111.988281 38.222656 L 115.25 38.222656 L 115.25 53.488281 L 112.917969 53.488281 L 112.917969 43.582031 Z M 116.882812 38.222656 L 120.726562 38.222656 C 123.289062 38.222656 124.222656 39.503906 124.222656 41.601562 L 124.222656 44.863281 C 124.222656 46.960938 123.289062 48.359375 120.726562 48.359375 L 119.445312 48.359375 L 119.445312 53.605469 L 116.882812 53.605469 Z M 119.445312 40.320312 L 119.445312 46.378906 L 120.378906 46.378906 C 121.308594 46.378906 121.660156 45.914062 121.660156 45.097656 L 121.660156 41.601562 C 121.660156 40.785156 121.308594 40.320312 120.378906 40.320312 Z M 125.039062 38.222656 L 131.914062 38.222656 L 131.914062 40.320312 L 129.816406 40.320312 L 129.816406 53.488281 L 127.253906 53.488281 L 127.253906 40.320312 L 125.15625 40.320312 Z M 133.078125 38.222656 L 135.644531 38.222656 L 135.644531 53.488281 L 133.078125 53.488281 Z M 137.15625 49.527344 L 137.15625 42.066406 C 137.15625 39.621094 138.324219 37.988281 141.003906 37.988281 C 143.683594 37.988281 144.964844 39.738281 144.964844 42.066406 L 144.964844 49.527344 C 144.964844 51.855469 143.800781 53.605469 141.003906 53.605469 C 138.324219 53.722656 137.15625 51.972656 137.15625 49.527344 Z M 142.402344 49.992188 L 142.402344 41.71875 C 142.402344 40.785156 142.050781 40.085938 141.121094 40.085938 C 140.1875 40.085938 139.839844 40.785156 139.839844 41.71875 L 139.839844 49.992188 C 139.839844 50.925781 140.1875 51.625 141.121094 51.625 C 141.9375 51.507812 142.402344 50.925781 142.402344 49.992188 Z M 148.695312 43.933594 L 148.695312 53.605469 L 146.480469 53.605469 L 146.480469 38.339844 L 149.042969 38.339844 L 151.839844 47.078125 L 151.839844 38.339844 L 153.9375 38.339844 L 153.9375 53.605469 L 151.726562 53.605469 Z M 148.695312 43.933594 " fill-opacity="1" fill-rule="nonzero"/><path fill="#ffffff" d="M 59.546875 75.980469 L 62.460938 60.714844 L 65.375 60.714844 L 68.289062 75.980469 L 65.609375 75.980469 L 65.140625 73.183594 L 62.460938 73.183594 L 61.996094 75.980469 Z M 62.695312 71.199219 L 64.792969 71.199219 L 63.742188 65.023438 Z M 71.550781 66.421875 L 71.550781 76.09375 L 69.335938 76.09375 L 69.335938 60.828125 L 71.898438 60.828125 L 74.695312 69.570312 L 74.695312 60.828125 L 76.792969 60.828125 L 76.792969 76.09375 L 74.582031 76.09375 Z M 86.117188 64.792969 L 86.117188 71.898438 C 86.117188 74.230469 85.183594 75.980469 82.386719 75.980469 L 78.425781 75.980469 L 78.425781 60.714844 L 82.386719 60.714844 C 85.070312 60.714844 86.117188 62.460938 86.117188 64.792969 Z M 82.039062 73.882812 C 83.085938 73.882812 83.554688 73.296875 83.554688 72.367188 L 83.554688 64.324219 C 83.554688 63.394531 83.203125 62.8125 82.039062 62.8125 L 80.988281 62.8125 L 80.988281 73.882812 Z M 90.078125 60.714844 L 93.925781 60.714844 C 96.488281 60.714844 97.421875 61.996094 97.421875 64.09375 L 97.421875 67.355469 C 97.421875 69.453125 96.488281 70.851562 93.925781 70.851562 L 92.644531 70.851562 L 92.644531 76.09375 L 90.078125 76.09375 Z M 92.644531 62.8125 L 92.644531 68.871094 L 93.574219 68.871094 C 94.507812 68.871094 94.855469 68.402344 94.855469 67.589844 L 94.855469 64.09375 C 94.855469 63.277344 94.507812 62.8125 93.574219 62.8125 Z M 101.382812 68.988281 L 101.382812 75.980469 L 98.820312 75.980469 L 98.820312 60.714844 L 102.546875 60.714844 C 105.113281 60.714844 106.042969 61.996094 106.042969 64.09375 L 106.042969 66.074219 C 106.042969 67.707031 105.460938 68.636719 103.945312 68.988281 L 106.394531 75.980469 L 103.714844 75.980469 Z M 101.382812 62.8125 L 101.382812 67.589844 L 102.199219 67.589844 C 103.128906 67.589844 103.480469 67.121094 103.480469 66.308594 L 103.480469 64.09375 C 103.480469 63.277344 103.128906 62.8125 102.199219 62.8125 Z M 107.558594 72.015625 L 107.558594 64.558594 C 107.558594 62.113281 108.722656 60.480469 111.40625 60.480469 C 114.085938 60.480469 115.367188 62.226562 115.367188 64.558594 L 115.367188 72.015625 C 115.367188 74.347656 114.203125 76.09375 111.40625 76.09375 C 108.722656 76.210938 107.558594 74.464844 107.558594 72.015625 Z M 112.804688 72.484375 L 112.804688 64.210938 C 112.804688 63.277344 112.453125 62.578125 111.519531 62.578125 C 110.589844 62.578125 110.238281 63.277344 110.238281 64.210938 L 110.238281 72.484375 C 110.238281 73.414062 110.589844 74.113281 111.519531 74.113281 C 112.453125 73.996094 112.804688 73.414062 112.804688 72.484375 Z M 124.6875 64.792969 L 124.6875 71.898438 C 124.6875 74.230469 123.757812 75.980469 120.960938 75.980469 L 117 75.980469 L 117 60.714844 L 120.960938 60.714844 C 123.640625 60.714844 124.6875 62.460938 124.6875 64.792969 Z M 120.609375 73.882812 C 121.660156 73.882812 122.125 73.296875 122.125 72.367188 L 122.125 64.324219 C 122.125 63.394531 121.777344 62.8125 120.609375 62.8125 L 119.5625 62.8125 L 119.5625 73.882812 Z M 133.664062 60.714844 L 133.664062 72.25 C 133.664062 74.582031 132.613281 76.210938 130.050781 76.210938 C 127.371094 76.210938 126.203125 74.695312 126.203125 72.25 L 126.203125 60.714844 L 128.769531 60.714844 L 128.769531 72.597656 C 128.769531 73.53125 129.117188 74.113281 130.050781 74.113281 C 130.980469 74.113281 131.332031 73.53125 131.332031 72.597656 L 131.332031 60.714844 Z M 135.175781 72.015625 L 135.175781 64.558594 C 135.175781 62.113281 136.34375 60.480469 139.023438 60.480469 C 141.820312 60.480469 142.636719 62.113281 142.636719 64.324219 L 142.636719 66.191406 L 140.304688 66.191406 L 140.304688 64.210938 C 140.304688 63.277344 139.953125 62.695312 139.023438 62.695312 C 138.089844 62.695312 137.742188 63.394531 137.742188 64.324219 L 137.742188 72.597656 C 137.742188 73.53125 138.089844 74.230469 139.023438 74.230469 C 139.953125 74.230469 140.304688 73.648438 140.304688 72.714844 L 140.304688 69.917969 L 142.636719 69.917969 L 142.636719 72.597656 C 142.636719 74.8125 141.703125 76.445312 139.023438 76.445312 C 136.34375 76.210938 135.175781 74.464844 135.175781 72.015625 Z M 143.917969 60.714844 L 150.792969 60.714844 L 150.792969 62.8125 L 148.695312 62.8125 L 148.695312 75.980469 L 146.132812 75.980469 L 146.132812 62.8125 L 144.035156 62.8125 Z M 151.957031 60.714844 L 154.519531 60.714844 L 154.519531 75.980469 L 151.957031 75.980469 Z M 156.035156 72.015625 L 156.035156 64.558594 C 156.035156 62.113281 157.203125 60.480469 159.882812 60.480469 C 162.5625 60.480469 163.84375 62.226562 163.84375 64.558594 L 163.84375 72.015625 C 163.84375 74.347656 162.679688 76.09375 159.882812 76.09375 C 157.203125 76.210938 156.035156 74.464844 156.035156 72.015625 Z M 161.28125 72.484375 L 161.28125 64.210938 C 161.28125 63.277344 160.929688 62.578125 160 62.578125 C 159.066406 62.578125 158.714844 63.277344 158.714844 64.210938 L 158.714844 72.484375 C 158.714844 73.414062 159.066406 74.113281 160 74.113281 C 160.8125 73.996094 161.28125 73.414062 161.28125 72.484375 Z M 167.457031 66.421875 L 167.457031 76.09375 L 165.242188 76.09375 L 165.242188 60.828125 L 167.804688 60.828125 L 170.601562 69.570312 L 170.601562 60.828125 L 172.699219 60.828125 L 172.699219 76.09375 L 170.484375 76.09375 Z M 167.457031 66.421875 " fill-opacity="1" fill-rule="nonzero"/></svg>